<svg width="124" height="124" viewBox="0 0 124 124" fill="none" xmlns="http://www.w3.org/2000/svg">
<path d="M62 113.667C68.7862 113.675 75.5073 112.343 81.7769 109.746C88.0466 107.149 93.7412 103.338 98.5335 98.5335C103.338 93.7412 107.149 88.0466 109.746 81.777C112.343 75.5073 113.675 68.7862 113.667 62C113.675 55.2138 112.343 48.4927 109.746 42.2231C107.149 35.9535 103.338 30.2589 98.5335 25.4665C93.7412 20.6616 88.0466 16.8511 81.7769 14.254C75.5073 11.657 68.7862 10.3245 62 10.3333C55.2137 10.3247 48.4927 11.6572 42.2231 14.2542C35.9534 16.8513 30.2588 20.6617 25.4665 25.4665C20.6616 30.2589 16.8512 35.9535 14.2542 42.2231C11.6571 48.4927 10.3246 55.2138 10.3333 62C10.3245 68.7862 11.6569 75.5073 14.254 81.777C16.851 88.0466 20.6615 93.7412 25.4665 98.5335C30.2588 103.338 35.9534 107.149 42.2231 109.746C48.4927 112.343 55.2137 113.675 62 113.667V113.667Z" stroke="white" stroke-width="16.6667" stroke-linejoin="round"/>
<path fill-rule="evenodd" clip-rule="evenodd" d="M62 95.5833C63.7128 95.5833 65.3555 94.9029 66.5667 93.6917C67.7779 92.4806 68.4583 90.8378 68.4583 89.125C68.4583 87.4121 67.7779 85.7694 66.5667 84.5583C65.3555 83.3471 63.7128 82.6667 62 82.6667C60.2871 82.6667 58.6444 83.3471 57.4332 84.5583C56.2221 85.7694 55.5416 87.4121 55.5416 89.125C55.5416 90.8378 56.2221 92.4806 57.4332 93.6917C58.6444 94.9029 60.2871 95.5833 62 95.5833V95.5833Z" fill="white"/>
<path d="M62 31V72.3333" stroke="white" stroke-width="16.6667" stroke-linecap="round" stroke-linejoin="round"/>
</svg>
