<svg width="48" height="48" viewBox="0 0 48 48" fill="none" xmlns="http://www.w3.org/2000/svg">
<path d="M24 47C27.021 47.0039 30.0129 46.4108 32.8039 45.2546C35.5949 44.0985 38.13 42.4023 40.2633 40.2633C42.4023 38.13 44.0985 35.5949 45.2546 32.8039C46.4108 30.0129 47.0039 27.021 47 24C47.0038 20.979 46.4107 17.9871 45.2546 15.1961C44.0985 12.4051 42.4022 9.87008 40.2633 7.73671C38.13 5.59775 35.5949 3.90147 32.8039 2.74536C30.0129 1.58925 27.021 0.996105 24 1.00002C20.979 0.996168 17.9871 1.58934 15.1961 2.74544C12.4051 3.90155 9.87008 5.5978 7.73671 7.73671C5.5978 9.87008 3.90155 12.4051 2.74544 15.1961C1.58934 17.9871 0.996168 20.979 1.00002 24C0.996105 27.021 1.58925 30.0129 2.74536 32.8039C3.90147 35.5949 5.59775 38.13 7.73671 40.2633C9.87008 42.4022 12.4051 44.0985 15.1961 45.2546C17.9871 46.4107 20.979 47.0038 24 47V47Z" stroke="#042660" stroke-width="2" stroke-linejoin="round"/>
<path fill-rule="evenodd" clip-rule="evenodd" d="M23.5 36C23.8978 36 24.2794 35.842 24.5607 35.5607C24.842 35.2794 25 34.8978 25 34.5C25 34.1022 24.842 33.7206 24.5607 33.4393C24.2794 33.158 23.8978 33 23.5 33C23.1022 33 22.7206 33.158 22.4393 33.4393C22.158 33.7206 22 34.1022 22 34.5C22 34.8978 22.158 35.2794 22.4393 35.5607C22.7206 35.842 23.1022 36 23.5 36Z" fill="#042660"/>
<path d="M23.5491 10.9215V29.3215" stroke="#042660" stroke-width="2" stroke-linecap="round" stroke-linejoin="round"/>
</svg>
