<svg width="120" height="121" viewBox="0 0 120 121" fill="none" xmlns="http://www.w3.org/2000/svg">
<path d="M60.1583 88.6543C44.3271 88.6543 31.6622 75.9894 31.6622 60.1583C31.6622 44.3272 44.3271 31.6623 60.1583 31.6623C75.9894 31.6623 88.6543 44.3272 88.6543 60.1583C88.6543 75.9894 75.9894 88.6543 60.1583 88.6543ZM60.1583 37.9947C47.81 37.9947 37.9947 47.81 37.9947 60.1583C37.9947 72.5066 47.81 82.3219 60.1583 82.3219C72.5066 82.3219 82.3219 72.5066 82.3219 60.1583C82.3219 47.81 72.5066 37.9947 60.1583 37.9947Z" fill="white"/>
<path d="M68.7071 120.317H51.6095L46.8602 105.752C43.6939 104.802 40.5277 103.536 37.6781 101.952L23.7467 108.918L11.715 96.8865L18.6807 82.9551C17.0976 80.1055 15.8311 76.9393 14.8813 73.7731L0 68.7071V51.6095L14.5646 46.8602C15.5145 43.6939 16.781 40.5277 18.3641 37.6781L11.3984 23.7467L23.4301 11.715L37.3615 18.6807C40.2111 17.0976 43.3773 15.8311 46.5435 14.8813L51.6095 0H68.7071L73.4565 14.5646C76.6227 15.5145 79.7889 16.781 82.6385 18.3641L96.5699 11.3984L108.602 23.4301L101.636 37.3615C103.219 40.2111 104.485 43.3773 105.435 46.5435L120 51.2929V68.3905L105.435 73.1398C104.485 76.3061 103.219 79.4723 101.636 82.3219L108.602 96.2533L96.5699 108.285L82.6385 101.319C79.7889 102.902 76.6227 104.169 73.4565 105.119L68.7071 120.317ZM56.0422 113.984H64.2744L68.7071 100.369L70.2902 100.053C74.0897 99.1029 77.5726 97.5198 81.0554 95.62L82.6385 94.6702L95.3034 101.003L101.003 95.3034L94.6702 82.6385L95.6201 81.0554C97.5198 77.8892 99.1029 74.0897 100.053 70.2902L100.369 68.7071L113.984 64.2744V56.0422L100.369 51.6095L100.053 50.0264C99.1029 46.2269 97.5198 42.7441 95.6201 39.2612L94.6702 37.6781L101.003 25.0132L95.3034 19.314L82.6385 25.6464L81.0554 24.6966C77.5726 22.7968 74.0897 21.2137 70.2902 20.2638L68.7071 19.9472L64.2744 6.33245H56.0422L51.6095 19.9472L50.0264 20.2638C46.2269 21.2137 42.7441 22.7968 39.2612 24.6966L37.6781 25.6464L25.0132 19.314L19.314 25.0132L25.6464 37.6781L24.6966 39.2612C22.7968 42.4274 21.2137 46.2269 20.2639 50.0264L19.9472 51.6095L6.33245 56.0422V64.2744L19.9472 68.7071L20.2639 70.2902C21.2137 74.0897 22.7968 77.5726 24.6966 81.0554L25.6464 82.6385L19.314 95.3034L25.0132 101.003L37.6781 94.6702L39.2612 95.62C42.7441 97.5198 46.2269 99.1029 50.0264 100.053L51.6095 100.369L56.0422 113.984V113.984Z" fill="white"/>
</svg>
