<svg width="51" height="51" viewBox="0 0 51 51" fill="none" xmlns="http://www.w3.org/2000/svg">
<path d="M25.5001 37.5789C18.7896 37.5789 13.4211 32.2105 13.4211 25.5C13.4211 18.7894 18.7896 13.421 25.5001 13.421C32.2106 13.421 37.579 18.7894 37.579 25.5C37.579 32.2105 32.2106 37.5789 25.5001 37.5789ZM25.5001 16.1052C20.2659 16.1052 16.1054 20.2658 16.1054 25.5C16.1054 30.7342 20.2659 34.8947 25.5001 34.8947C30.7343 34.8947 34.8948 30.7342 34.8948 25.5C34.8948 20.2658 30.7343 16.1052 25.5001 16.1052Z" fill="#042660"/>
<path d="M29.1237 51H21.8763L19.8632 44.8263C18.5211 44.4237 17.1789 43.8868 15.9711 43.2158L10.0658 46.1684L4.96579 41.0684L7.91842 35.1632C7.24737 33.9553 6.71053 32.6132 6.3079 31.2711L0 29.1237V21.8763L6.17369 19.8632C6.57632 18.5211 7.11316 17.1789 7.78421 15.9711L4.83158 10.0658L9.93158 4.96579L15.8368 7.91842C17.0447 7.24737 18.3868 6.71053 19.729 6.30789L21.8763 0H29.1237L31.1368 6.17368C32.479 6.57632 33.8211 7.11316 35.0289 7.78421L40.9342 4.83158L46.0342 9.93158L43.0816 15.8368C43.7526 17.0447 44.2895 18.3868 44.6921 19.7289L50.8658 21.7421V28.9895L44.6921 31.0026C44.2895 32.3447 43.7526 33.6868 43.0816 34.8947L46.0342 40.8L40.9342 45.9L35.0289 42.9474C33.8211 43.6184 32.479 44.1553 31.1368 44.5579L29.1237 51ZM23.7553 48.3158H27.2447L29.1237 42.5447L29.7947 42.4105C31.4053 42.0079 32.8816 41.3368 34.3579 40.5316L35.0289 40.1289L40.3974 42.8132L42.8132 40.3974L40.129 35.0289L40.5316 34.3579C41.3368 33.0158 42.0079 31.4053 42.4105 29.7947L42.5447 29.1237L48.3158 27.2447V23.7553L42.5447 21.8763L42.4105 21.2053C42.0079 19.5947 41.3368 18.1184 40.5316 16.6421L40.129 15.9711L42.8132 10.6026L40.3974 8.18684L35.0289 10.8711L34.3579 10.4684C32.8816 9.66316 31.4053 8.9921 29.7947 8.58947L29.1237 8.45526L27.2447 2.68421H23.7553L21.8763 8.45526L21.2053 8.58947C19.5947 8.9921 18.1184 9.66316 16.6421 10.4684L15.9711 10.8711L10.6026 8.18684L8.18684 10.6026L10.8711 15.9711L10.4684 16.6421C9.66316 17.9842 8.99211 19.5947 8.58947 21.2053L8.45526 21.8763L2.68421 23.7553V27.2447L8.45526 29.1237L8.58947 29.7947C8.99211 31.4053 9.66316 32.8816 10.4684 34.3579L10.8711 35.0289L8.18684 40.3974L10.6026 42.8132L15.9711 40.1289L16.6421 40.5316C18.1184 41.3368 19.5947 42.0079 21.2053 42.4105L21.8763 42.5447L23.7553 48.3158Z" fill="#042660"/>
</svg>
