<svg width="80" height="107" viewBox="0 0 80 107" fill="none" xmlns="http://www.w3.org/2000/svg">
<path fill-rule="evenodd" clip-rule="evenodd" d="M40 8.29169C21.2675 8.29169 8.04163 21.7781 8.04163 38.3768C8.04163 45.9288 11.149 51.0224 15.0479 55.8801C15.8935 56.9372 16.754 57.9549 17.639 59.0022L18.111 59.5528C19.1435 60.782 20.2104 62.0505 21.2085 63.3583C23.1948 65.9691 25.0582 68.9044 26.1005 72.3755C26.3558 73.3038 26.2379 74.2951 25.7721 75.1377C25.3062 75.9802 24.5293 76.6071 23.6073 76.8845C22.6854 77.1618 21.6915 77.0676 20.8381 76.622C19.9847 76.1763 19.3395 75.4146 19.0402 74.4995C18.3617 72.2378 17.0883 70.1237 15.338 67.8276C14.4136 66.6337 13.4595 65.4632 12.4765 64.3171L12.0241 63.7763C11.1391 62.7339 10.205 61.6326 9.29538 60.4969C4.94413 55.0787 0.666626 48.3674 0.666626 38.3719C0.666626 17.4514 17.457 0.916687 40 0.916687C62.5429 0.916687 79.3333 17.4465 79.3333 38.3768C79.3333 48.3674 75.0558 55.0787 70.7045 60.5018C69.795 61.6326 68.8608 62.7339 67.9758 63.7812L67.5235 64.3171C66.491 65.5364 65.5322 66.682 64.662 67.8276C62.9116 70.1237 61.6382 72.2428 60.9597 74.4995C60.6781 75.4364 60.0357 76.2231 59.1741 76.6864C58.3124 77.1497 57.302 77.2518 56.3651 76.9701C55.4282 76.6885 54.6415 76.0462 54.1782 75.1845C53.7149 74.3229 53.6128 73.3124 53.8945 72.3755C54.9417 68.9044 56.8051 65.9691 58.7964 63.3583C59.7895 62.0505 60.8565 60.782 61.8939 59.5528L62.361 59.0022C63.246 57.9549 64.1064 56.9372 64.952 55.885C68.851 51.0175 71.9583 45.9288 71.9583 38.3768C71.9583 21.7781 58.7325 8.29169 40 8.29169ZM27.7083 102.938C27.7083 101.96 28.0968 101.022 28.7883 100.33C29.4799 99.6385 30.4178 99.25 31.3958 99.25H48.6041C49.5821 99.25 50.52 99.6385 51.2116 100.33C51.9031 101.022 52.2916 101.96 52.2916 102.938C52.2916 103.916 51.9031 104.853 51.2116 105.545C50.52 106.237 49.5821 106.625 48.6041 106.625H31.3958C30.4178 106.625 29.4799 106.237 28.7883 105.545C28.0968 104.853 27.7083 103.916 27.7083 102.938ZM24.0208 84.5C23.0428 84.5 22.1049 84.8885 21.4133 85.5801C20.7218 86.2716 20.3333 87.2095 20.3333 88.1875C20.3333 89.1655 20.7218 90.1034 21.4133 90.795C22.1049 91.4865 23.0428 91.875 24.0208 91.875H55.9791C56.9571 91.875 57.895 91.4865 58.5866 90.795C59.2781 90.1034 59.6666 89.1655 59.6666 88.1875C59.6666 87.2095 59.2781 86.2716 58.5866 85.5801C57.895 84.8885 56.9571 84.5 55.9791 84.5H24.0208Z" fill="white"/>
</svg>
