<svg width="34" height="45" viewBox="0 0 34 45" fill="none" xmlns="http://www.w3.org/2000/svg">
<path fill-rule="evenodd" clip-rule="evenodd" d="M17 3.20837C9.06254 3.20837 3.45837 8.92296 3.45837 15.9563C3.45837 19.1563 4.77504 21.3146 6.42712 23.373C6.78546 23.8209 7.15004 24.2521 7.52504 24.6959L7.72504 24.9292C8.16254 25.45 8.61462 25.9875 9.03754 26.5417C9.87921 27.648 10.6688 28.8917 11.1105 30.3625C11.2186 30.7559 11.1687 31.1759 10.9713 31.5329C10.7739 31.8899 10.4447 32.1556 10.054 32.2731C9.66336 32.3906 9.24224 32.3507 8.88063 32.1619C8.51902 31.973 8.2456 31.6503 8.11879 31.2625C7.83129 30.3042 7.29171 29.4084 6.55004 28.4355C6.15838 27.9296 5.75409 27.4336 5.33754 26.948L5.14587 26.7188C4.77087 26.2771 4.37504 25.8105 3.98962 25.3292C2.14587 23.0334 0.333374 20.1896 0.333374 15.9542C0.333374 7.08962 7.44796 0.083374 17 0.083374C26.5521 0.083374 33.6667 7.08754 33.6667 15.9563C33.6667 20.1896 31.8542 23.0334 30.0105 25.3313C29.625 25.8105 29.2292 26.2771 28.8542 26.7209L28.6625 26.948C28.225 27.4646 27.8188 27.95 27.45 28.4355C26.7084 29.4084 26.1688 30.3063 25.8813 31.2625C25.7619 31.6595 25.4898 31.9929 25.1247 32.1892C24.7596 32.3855 24.3314 32.4288 23.9344 32.3094C23.5374 32.1901 23.2041 31.9179 23.0078 31.5528C22.8114 31.1877 22.7682 30.7595 22.8875 30.3625C23.3313 28.8917 24.1209 27.648 24.9646 26.5417C25.3855 25.9875 25.8375 25.45 26.2771 24.9292L26.475 24.6959C26.85 24.2521 27.2146 23.8209 27.573 23.375C29.225 21.3125 30.5417 19.1563 30.5417 15.9563C30.5417 8.92296 24.9375 3.20837 17 3.20837ZM11.7917 43.3125C11.7917 42.8981 11.9563 42.5007 12.2494 42.2077C12.5424 41.9147 12.9398 41.75 13.3542 41.75H20.6459C21.0603 41.75 21.4577 41.9147 21.7507 42.2077C22.0438 42.5007 22.2084 42.8981 22.2084 43.3125C22.2084 43.7269 22.0438 44.1244 21.7507 44.4174C21.4577 44.7104 21.0603 44.875 20.6459 44.875H13.3542C12.9398 44.875 12.5424 44.7104 12.2494 44.4174C11.9563 44.1244 11.7917 43.7269 11.7917 43.3125ZM10.2292 35.5C9.81481 35.5 9.41738 35.6647 9.12435 35.9577C8.83133 36.2507 8.66671 36.6481 8.66671 37.0625C8.66671 37.4769 8.83133 37.8744 9.12435 38.1674C9.41738 38.4604 9.81481 38.625 10.2292 38.625H23.7709C24.1853 38.625 24.5827 38.4604 24.8757 38.1674C25.1688 37.8744 25.3334 37.4769 25.3334 37.0625C25.3334 36.6481 25.1688 36.2507 24.8757 35.9577C24.5827 35.6647 24.1853 35.5 23.7709 35.5H10.2292Z" fill="#042660"/>
</svg>
