<svg width="40" height="44" viewBox="0 0 40 44" fill="none" xmlns="http://www.w3.org/2000/svg">
<path d="M11.3333 1.95831C11.3333 1.52734 11.5045 1.11401 11.8093 0.809264C12.114 0.504518 12.5274 0.333313 12.9583 0.333313H16.2083C16.6393 0.333313 17.0526 0.504518 17.3574 0.809264C17.6621 1.11401 17.8333 1.52734 17.8333 1.95831V2.49998H20.5417C20.9726 2.49998 21.386 2.67118 21.6907 2.97593C21.9955 3.28068 22.1667 3.694 22.1667 4.12498V7.99248C22.184 7.99248 22.2035 7.99248 22.2208 7.99681C25.8598 8.34024 29.306 9.79098 32.0951 12.1535C34.8841 14.5161 36.8817 17.6768 37.8189 21.2098C38.756 24.7428 38.5876 28.4781 37.3362 31.9124C36.0848 35.3467 33.8107 38.3148 30.8203 40.4166H37.875C38.306 40.4166 38.7193 40.5878 39.0241 40.8926C39.3288 41.1973 39.5 41.6107 39.5 42.0416C39.5 42.4726 39.3288 42.8859 39.0241 43.1907C38.7193 43.4954 38.306 43.6666 37.875 43.6666H2.125C1.69402 43.6666 1.2807 43.4954 0.975951 43.1907C0.671205 42.8859 0.5 42.4726 0.5 42.0416C0.5 41.6107 0.671205 41.1973 0.975951 40.8926C1.2807 40.5878 1.69402 40.4166 2.125 40.4166H20.6002C24.3325 40.401 27.9177 38.959 30.6213 36.3859C33.325 33.8128 34.9426 30.3033 35.1428 26.5763C35.343 22.8493 34.1107 19.1868 31.6983 16.3389C29.2859 13.4909 25.8759 11.6731 22.1667 11.2576V22.5416C22.1667 22.9726 21.9955 23.3859 21.6907 23.6907C21.386 23.9954 20.9726 24.1666 20.5417 24.1666H18.9167V26.3333C18.9167 27.4826 18.4601 28.5848 17.6475 29.3974C16.8348 30.2101 15.7326 30.6666 14.5833 30.6666C13.4341 30.6666 12.3319 30.2101 11.5192 29.3974C10.7065 28.5848 10.25 27.4826 10.25 26.3333V24.1666H8.625C8.19402 24.1666 7.7807 23.9954 7.47595 23.6907C7.17121 23.3859 7 22.9726 7 22.5416V4.12498C7 3.694 7.17121 3.28068 7.47595 2.97593C7.7807 2.67118 8.19402 2.49998 8.625 2.49998H11.3333V1.95831ZM13.5 24.1666V26.3333C13.5 26.6206 13.6141 26.8962 13.8173 27.0993C14.0205 27.3025 14.296 27.4166 14.5833 27.4166C14.8707 27.4166 15.1462 27.3025 15.3494 27.0993C15.5525 26.8962 15.6667 26.6206 15.6667 26.3333V24.1666H13.5ZM10.25 20.9166H18.9167V5.74998H10.25V20.9166ZM6.45833 33.9166C6.02736 33.9166 5.61403 34.0878 5.30928 34.3926C5.00454 34.6973 4.83333 35.1107 4.83333 35.5416C4.83333 35.9726 5.00454 36.3859 5.30928 36.6907C5.61403 36.9954 6.02736 37.1666 6.45833 37.1666H22.7083C23.1393 37.1666 23.5526 36.9954 23.8574 36.6907C24.1621 36.3859 24.3333 35.9726 24.3333 35.5416C24.3333 35.1107 24.1621 34.6973 23.8574 34.3926C23.5526 34.0878 23.1393 33.9166 22.7083 33.9166H6.45833Z" fill="#042660"/>
</svg>
