<svg width="87" height="97" viewBox="0 0 87 97" fill="none" xmlns="http://www.w3.org/2000/svg">
<path d="M24.3333 4.17706C24.3333 3.22394 24.712 2.30986 25.3859 1.6359C26.0599 0.961939 26.974 0.583313 27.9271 0.583313H35.1146C36.0677 0.583313 36.9818 0.961939 37.6557 1.6359C38.3297 2.30986 38.7083 3.22394 38.7083 4.17706V5.37498H44.6979C45.651 5.37498 46.5651 5.75361 47.2391 6.42756C47.913 7.10152 48.2917 8.01561 48.2917 8.96873V17.5219C48.33 17.5219 48.3731 17.5219 48.4115 17.5314C56.4592 18.2909 64.0807 21.4993 70.2487 26.7242C76.4166 31.949 80.8346 38.9392 82.9071 46.7525C84.9797 54.5658 84.6071 62.8267 81.8396 70.4217C79.0722 78.0167 74.0429 84.5807 67.4296 89.2291H83.0312C83.9844 89.2291 84.8985 89.6078 85.5724 90.2817C86.2464 90.9557 86.625 91.8698 86.625 92.8229C86.625 93.776 86.2464 94.6901 85.5724 95.3641C84.8985 96.038 83.9844 96.4166 83.0312 96.4166H3.96875C3.01563 96.4166 2.10154 96.038 1.42758 95.3641C0.753626 94.6901 0.375 93.776 0.375 92.8229C0.375 91.8698 0.753626 90.9557 1.42758 90.2817C2.10154 89.6078 3.01563 89.2291 3.96875 89.2291H44.8273C53.0815 89.1945 61.0102 86.0054 66.9895 80.3149C72.9687 74.6244 76.5461 66.8632 76.9889 58.6208C77.4317 50.3784 74.7064 42.2785 69.3712 35.9802C64.036 29.6818 56.4947 25.6616 48.2917 24.7429V49.6979C48.2917 50.651 47.913 51.5651 47.2391 52.2391C46.5651 52.913 45.651 53.2916 44.6979 53.2916H41.1042V58.0833C41.1042 60.625 40.0945 63.0625 38.2973 64.8597C36.5 66.657 34.0625 67.6666 31.5208 67.6666C28.9792 67.6666 26.5416 66.657 24.7444 64.8597C22.9472 63.0625 21.9375 60.625 21.9375 58.0833V53.2916H18.3437C17.3906 53.2916 16.4765 52.913 15.8026 52.2391C15.1286 51.5651 14.75 50.651 14.75 49.6979V8.96873C14.75 8.01561 15.1286 7.10152 15.8026 6.42756C16.4765 5.75361 17.3906 5.37498 18.3437 5.37498H24.3333V4.17706ZM29.125 53.2916V58.0833C29.125 58.7187 29.3774 59.3281 29.8267 59.7774C30.276 60.2267 30.8854 60.4791 31.5208 60.4791C32.1562 60.4791 32.7656 60.2267 33.2149 59.7774C33.6642 59.3281 33.9167 58.7187 33.9167 58.0833V53.2916H29.125ZM21.9375 46.1041H41.1042V12.5625H21.9375V46.1041ZM13.5521 74.8541C12.599 74.8541 11.6849 75.2328 11.0109 75.9067C10.337 76.5807 9.95833 77.4948 9.95833 78.4479C9.95833 79.401 10.337 80.3151 11.0109 80.9891C11.6849 81.663 12.599 82.0416 13.5521 82.0416H49.4896C50.4427 82.0416 51.3568 81.663 52.0307 80.9891C52.7047 80.3151 53.0833 79.401 53.0833 78.4479C53.0833 77.4948 52.7047 76.5807 52.0307 75.9067C51.3568 75.2328 50.4427 74.8541 49.4896 74.8541H13.5521Z" fill="white"/>
</svg>
