<svg width="120" height="120" viewBox="0 0 120 120" fill="none" xmlns="http://www.w3.org/2000/svg">
<path d="M69.765 9.42C68.7807 7.69932 67.3591 6.2693 65.6443 5.27473C63.9295 4.28015 61.9824 3.75635 60 3.75635C58.0177 3.75635 56.0705 4.28015 54.3557 5.27473C52.6409 6.2693 51.2194 7.69932 50.235 9.42L37.455 31.77C36.9607 32.6343 36.83 33.6595 37.0916 34.6202C37.3532 35.5808 37.9857 36.3982 38.85 36.8925C39.7143 37.3868 40.7395 37.5175 41.7002 37.2559C42.6608 36.9943 43.4782 36.3618 43.9725 35.4975L56.745 13.14C57.0731 12.5664 57.547 12.0898 58.1186 11.7582C58.6902 11.4267 59.3392 11.2521 60 11.2521C60.6608 11.2521 61.3099 11.4267 61.8815 11.7582C62.453 12.0898 62.9269 12.5664 63.255 13.14L82.305 46.47L72.885 43.9425C71.9243 43.6839 70.9002 43.8176 70.038 44.3141C69.1758 44.8106 68.5461 45.6293 68.2875 46.59C68.0289 47.5507 68.1626 48.5749 68.6591 49.4371C69.1556 50.2993 69.9743 50.9289 70.935 51.1875L89.0475 56.04C89.5232 56.1682 90.0196 56.2015 90.5081 56.1378C90.9967 56.0741 91.4679 55.9148 91.8949 55.6689C92.3218 55.4231 92.6962 55.0955 92.9965 54.7049C93.2968 54.3143 93.5172 53.8683 93.645 53.3925L98.4975 35.28C98.6251 34.8043 98.6577 34.3081 98.5935 33.8198C98.5292 33.3315 98.3695 32.8606 98.1233 32.434C97.8771 32.0075 97.5493 31.6336 97.1586 31.3337C96.7679 31.0338 96.322 30.8138 95.8463 30.6863C95.3706 30.5587 94.8744 30.5261 94.3861 30.5903C93.8978 30.6545 93.4269 30.8143 93.0003 31.0605C92.5737 31.3067 92.1998 31.6345 91.8999 32.0252C91.6001 32.4159 91.3801 32.8618 91.2525 33.3375L88.755 42.6525L69.765 9.42ZM22.2975 58.2975L12.885 60.825C11.9243 61.0836 10.9002 60.9499 10.038 60.4534C9.17576 59.9569 8.54611 59.1382 8.28752 58.1775C8.02893 57.2168 8.16259 56.1926 8.6591 55.3304C9.1556 54.4682 9.97427 53.8386 10.935 53.58L29.055 48.7275C30.0147 48.4708 31.0371 48.6054 31.8977 49.1018C32.7583 49.5981 33.3867 50.4157 33.645 51.375L38.4975 69.4875C38.7551 70.4483 38.6205 71.472 38.1233 72.3335C37.6261 73.195 36.807 73.8237 35.8463 74.0813C34.8855 74.3388 33.8618 74.2042 33.0003 73.707C32.1388 73.2098 31.5101 72.3908 31.2525 71.43L28.755 62.115L9.66752 95.52C9.3418 96.0902 9.17153 96.736 9.17375 97.3927C9.17597 98.0494 9.3506 98.694 9.68016 99.262C10.0097 99.83 10.4827 100.301 11.0517 100.629C11.6207 100.957 12.2658 101.13 12.9225 101.13H37.5C38.4946 101.13 39.4484 101.525 40.1517 102.228C40.8549 102.932 41.25 103.885 41.25 104.88C41.25 105.875 40.8549 106.828 40.1517 107.532C39.4484 108.235 38.4946 108.63 37.5 108.63H12.9225C10.9524 108.629 9.01707 108.111 7.31003 107.128C5.60299 106.144 4.18415 104.73 3.19545 103.026C2.20675 101.322 1.68287 99.3881 1.67621 97.418C1.66956 95.448 2.18036 93.5107 3.15752 91.8L22.2975 58.2975ZM103.973 69.27C103.735 68.8302 103.412 68.4424 103.022 68.1293C102.632 67.8162 102.184 67.5843 101.703 67.447C101.222 67.3098 100.719 67.2701 100.223 67.3302C99.7263 67.3903 99.247 67.549 98.813 67.797C98.3789 68.0451 97.9988 68.3774 97.6951 68.7745C97.3913 69.1715 97.17 69.6253 97.0442 70.1091C96.9184 70.593 96.8906 71.0971 96.9624 71.5918C97.0343 72.0866 97.2043 72.5619 97.4625 72.99L110.333 95.52C110.658 96.0902 110.829 96.736 110.826 97.3927C110.824 98.0494 110.649 98.694 110.32 99.262C109.99 99.83 109.517 100.301 108.948 100.629C108.379 100.957 107.734 101.13 107.078 101.13H65.3025L70.155 96.285C70.8582 95.5809 71.2528 94.6262 71.2521 93.6311C71.2514 92.636 70.8554 91.6819 70.1513 90.9788C69.8026 90.6306 69.3888 90.3545 68.9334 90.1663C68.4781 89.978 67.9901 89.8813 67.4974 89.8817C66.5023 89.8824 65.5482 90.2784 64.845 90.9825L53.595 102.233C53.2451 102.58 52.9674 102.993 52.7779 103.448C52.5884 103.903 52.4908 104.391 52.4908 104.884C52.4908 105.377 52.5884 105.865 52.7779 106.32C52.9674 106.775 53.2451 107.188 53.595 107.535L64.845 118.785C65.5482 119.489 66.5023 119.885 67.4974 119.886C67.9901 119.886 68.4781 119.789 68.9334 119.601C69.3888 119.413 69.8026 119.137 70.1513 118.789C70.4999 118.441 70.7766 118.027 70.9655 117.572C71.1544 117.117 71.2518 116.629 71.2521 116.136C71.2525 115.644 71.1557 115.156 70.9675 114.7C70.7793 114.245 70.5032 113.831 70.155 113.483L65.3025 108.63H107.078C109.048 108.629 110.983 108.111 112.69 107.128C114.397 106.144 115.816 104.73 116.805 103.026C117.793 101.322 118.317 99.3881 118.324 97.418C118.33 95.448 117.82 93.5107 116.843 91.8L103.973 69.27Z" fill="white"/>
</svg>
