<svg width="50" height="50" viewBox="0 0 50 50" fill="none" xmlns="http://www.w3.org/2000/svg">
<path d="M29.0687 3.92504C28.6586 3.20809 28.0663 2.61225 27.3518 2.19784C26.6373 1.78344 25.826 1.56519 25 1.56519C24.174 1.56519 23.3627 1.78344 22.6482 2.19784C21.9337 2.61225 21.3414 3.20809 20.9312 3.92504L15.6062 13.2375C15.4003 13.5977 15.3458 14.0248 15.4548 14.4251C15.5638 14.8254 15.8274 15.166 16.1875 15.3719C16.5476 15.5779 16.9748 15.6323 17.375 15.5233C17.7753 15.4143 18.1159 15.1508 18.3219 14.7907L23.6437 5.47504C23.7804 5.23606 23.9779 5.03744 24.216 4.89931C24.4542 4.76117 24.7247 4.68842 25 4.68842C25.2753 4.68842 25.5457 4.76117 25.7839 4.89931C26.0221 5.03744 26.2195 5.23606 26.3562 5.47504L34.2937 19.3625L30.3687 18.3094C29.9684 18.2017 29.5417 18.2574 29.1824 18.4642C28.8232 18.6711 28.5608 19.0122 28.4531 19.4125C28.3454 19.8129 28.4011 20.2396 28.6079 20.5988C28.8148 20.9581 29.1559 21.2204 29.5562 21.3282L37.1031 23.35C37.3013 23.4035 37.5081 23.4173 37.7117 23.3908C37.9153 23.3643 38.1116 23.2979 38.2895 23.1954C38.4674 23.093 38.6234 22.9565 38.7485 22.7937C38.8736 22.631 38.9654 22.4452 39.0187 22.2469L41.0406 14.7C41.0937 14.5018 41.1073 14.2951 41.0806 14.0916C41.0538 13.8882 40.9873 13.692 40.8847 13.5142C40.7821 13.3365 40.6455 13.1807 40.4827 13.0557C40.3199 12.9308 40.1341 12.8391 39.9359 12.786C39.7377 12.7328 39.531 12.7193 39.3275 12.746C39.124 12.7728 38.9278 12.8393 38.7501 12.9419C38.5724 13.0445 38.4166 13.1811 38.2916 13.3439C38.1667 13.5066 38.075 13.6925 38.0219 13.8907L36.9812 17.7719L29.0687 3.92504ZM9.2906 24.2907L5.36873 25.3438C4.96842 25.4515 4.5417 25.3958 4.18245 25.189C3.8232 24.9821 3.56085 24.641 3.4531 24.2407C3.34536 23.8404 3.40105 23.4136 3.60793 23.0544C3.8148 22.6951 4.15592 22.4328 4.55623 22.325L12.1062 20.3032C12.5061 20.1962 12.9321 20.2523 13.2907 20.4591C13.6492 20.6659 13.9111 21.0066 14.0187 21.4063L16.0406 28.9532C16.1479 29.3535 16.0918 29.78 15.8847 30.139C15.6775 30.4979 15.3362 30.7599 14.9359 30.8672C14.5356 30.9746 14.1091 30.9185 13.7501 30.7113C13.3911 30.5041 13.1292 30.1629 13.0219 29.7625L11.9812 25.8813L4.0281 39.8C3.89239 40.0376 3.82144 40.3067 3.82237 40.5803C3.82329 40.8539 3.89605 41.1225 4.03337 41.3592C4.17069 41.5959 4.36775 41.7923 4.60484 41.9289C4.84193 42.0655 5.11073 42.1375 5.38435 42.1375H15.625C16.0394 42.1375 16.4368 42.3022 16.7298 42.5952C17.0229 42.8882 17.1875 43.2856 17.1875 43.7C17.1875 44.1144 17.0229 44.5119 16.7298 44.8049C16.4368 45.0979 16.0394 45.2625 15.625 45.2625H5.38435C4.56349 45.2623 3.75708 45.0465 3.04581 44.6367C2.33455 44.2269 1.74336 43.6375 1.33141 42.9275C0.91945 42.2175 0.701165 41.4117 0.698391 40.5909C0.695617 39.77 0.908453 38.9628 1.3156 38.25L9.2906 24.2907ZM43.3218 28.8625C43.2228 28.6793 43.0881 28.5177 42.9257 28.3872C42.7633 28.2568 42.5765 28.1601 42.3762 28.103C42.1759 28.0458 41.9662 28.0292 41.7594 28.0543C41.5526 28.0793 41.3529 28.1455 41.172 28.2488C40.9912 28.3522 40.8328 28.4906 40.7062 28.6561C40.5797 28.8215 40.4875 29.0106 40.4351 29.2122C40.3826 29.4138 40.371 29.6238 40.401 29.83C40.4309 30.0361 40.5018 30.2342 40.6094 30.4125L45.9719 39.8C46.1076 40.0376 46.1785 40.3067 46.1776 40.5803C46.1767 40.8539 46.1039 41.1225 45.9666 41.3592C45.8293 41.5959 45.6322 41.7923 45.3951 41.9289C45.158 42.0655 44.8892 42.1375 44.6156 42.1375H27.2094L29.2312 40.1188C29.5242 39.8254 29.6886 39.4276 29.6883 39.013C29.6881 38.5984 29.5231 38.2008 29.2297 37.9079C29.0844 37.7628 28.912 37.6478 28.7222 37.5693C28.5325 37.4909 28.3292 37.4506 28.1239 37.4507C27.7092 37.451 27.3117 37.616 27.0187 37.9094L22.3312 42.5969C22.1854 42.7416 22.0697 42.9137 21.9908 43.1033C21.9118 43.2929 21.8711 43.4962 21.8711 43.7016C21.8711 43.907 21.9118 44.1103 21.9908 44.2999C22.0697 44.4895 22.1854 44.6616 22.3312 44.8063L27.0187 49.4938C27.3117 49.7872 27.7092 49.9522 28.1239 49.9525C28.3292 49.9526 28.5325 49.9123 28.7222 49.8339C28.912 49.7555 29.0844 49.6404 29.2297 49.4954C29.3749 49.3503 29.4902 49.178 29.5689 48.9884C29.6476 48.7988 29.6882 48.5955 29.6883 48.3902C29.6885 48.1849 29.6482 47.9816 29.5698 47.7919C29.4913 47.6021 29.3763 47.4297 29.2312 47.2844L27.2094 45.2625H44.6156C45.4365 45.2623 46.2429 45.0465 46.9541 44.6367C47.6654 44.2269 48.2566 43.6375 48.6685 42.9275C49.0805 42.2175 49.2988 41.4117 49.3016 40.5909C49.3043 39.77 49.0915 38.9628 48.6844 38.25L43.3218 28.8625Z" fill="#042660"/>
</svg>
