<svg xmlns="http://www.w3.org/2000/svg" width="50" height="50" fill="none"><path fill="#000" d="M42.71 7.28A24.67 24.67 0 0 0 25.11 0 24.88 24.88 0 0 0 .2 24.78c0 4.37 1.15 8.62 3.3 12.37L0 50l13.2-3.45A24.88 24.88 0 0 0 50 24.8c0-6.62-2.59-12.85-7.29-17.52Zm-17.6 38.1c-3.73 0-7.37-1-10.56-2.88l-.76-.45-7.84 2.05 2.09-7.6-.5-.77a20.58 20.58 0 0 1-3.17-10.95A20.69 20.69 0 0 1 39.7 10.23a20.45 20.45 0 0 1 6.05 14.57A20.59 20.59 0 0 1 25.1 45.37Zm11.35-15.4c-.63-.3-3.7-1.8-4.25-2.03-.58-.2-.98-.3-1.4.3-.43.63-1.61 2.03-1.97 2.43-.35.42-.72.47-1.35.15-.63-.3-2.64-.98-5-3.08a18.93 18.93 0 0 1-3.47-4.3c-.35-.62-.05-.95.28-1.27.27-.28.62-.73.93-1.08.3-.35.42-.62.62-1.02.2-.43.1-.78-.05-1.08-.15-.3-1.4-3.35-1.9-4.6-.5-1.2-1.04-1.05-1.41-1.07h-1.2c-.44 0-1.09.15-1.67.77-.55.63-2.16 2.13-2.16 5.18s2.24 6 2.54 6.4c.3.42 4.4 6.67 10.63 9.34 1.48.65 2.64 1.03 3.54 1.3 1.48.48 2.84.4 3.92.26 1.2-.18 3.7-1.5 4.2-2.95.52-1.45.52-2.68.35-2.95-.18-.28-.55-.4-1.18-.7Z"/></svg>