<svg xmlns="http://www.w3.org/2000/svg" width="50" height="50" fill="none"><g clip-path="url(#a)"><path fill="#fff" d="M9 11h31v29H9z"/><path fill="#000" d="m.01 50 3.38-12.42a25 25 0 1 1 9.03 9.03L.02 50Zm15.97-36.73a2.4 2.4 0 0 0-1.67.82c-.3.28-.46.53-.65.77a6.82 6.82 0 0 0-1.41 4.19c0 1.22.32 2.42.82 3.53A23.88 23.88 0 0 0 18 29.44c.54.53 1.06 1.06 1.62 1.56a23.62 23.62 0 0 0 9.6 5.12l1.43.22c.46.02.92-.02 1.38-.04a4.98 4.98 0 0 0 2.09-.57c.32-.17.64-.36.96-.55l.3-.23c.34-.25.55-.43.83-.72.21-.21.39-.47.53-.75.2-.41.39-1.19.47-1.84.06-.5.04-.76.03-.93 0-.27-.23-.55-.47-.66l-1.46-.66s-2.17-.94-3.5-1.55c-.14-.06-.29-.1-.44-.1a1.2 1.2 0 0 0-.95.32c-.01 0-.18.14-1.99 2.33a.87.87 0 0 1-.91.32c-.17-.04-.33-.1-.48-.16l-.63-.28h-.02a15.03 15.03 0 0 1-3.92-2.5c-.31-.28-.6-.58-.9-.87-1-.94-1.85-2-2.56-3.17l-.15-.23c-.1-.16-.19-.34-.25-.52-.1-.37.15-.66.15-.66s.61-.66.9-1.02c.23-.3.45-.62.65-.94.3-.47.39-.96.23-1.34-.7-1.7-1.42-3.41-2.17-5.1-.14-.33-.58-.57-.98-.62l-.4-.04a8.47 8.47 0 0 0-1.01.01Z"/></g><defs><clipPath id="a"><path fill="#fff" d="M0 0h50v50H0z"/></clipPath></defs></svg>